<?xml version="1.0" encoding="UTF-8" standalone="no"?>
<!-- Created with Inkscape (http://www.inkscape.org/) -->

<svg
   xmlns:dc="http://purl.org/dc/elements/1.1/"
   xmlns:cc="http://creativecommons.org/ns#"
   xmlns:rdf="http://www.w3.org/1999/02/22-rdf-syntax-ns#"
   xmlns:svg="http://www.w3.org/2000/svg"
   xmlns="http://www.w3.org/2000/svg"
   xmlns:sodipodi="http://sodipodi.sourceforge.net/DTD/sodipodi-0.dtd"
   xmlns:inkscape="http://www.inkscape.org/namespaces/inkscape"
   width="96in"
   height="24in"
   viewBox="0 0 8640 2160.0001"
   id="svg4136"
   version="1.1"
   inkscape:version="0.92.2 (5c3e80d, 2017-08-06)"
   sodipodi:docname="ByteMe.svg">
  <defs
     id="defs4138" />
  <sodipodi:namedview
     id="base"
     pagecolor="#ffffff"
     bordercolor="#666666"
     borderopacity="1.0"
     inkscape:pageopacity="0.0"
     inkscape:pageshadow="2"
     inkscape:zoom="0.08"
     inkscape:cx="4104.3585"
     inkscape:cy="1641.6043"
     inkscape:document-units="px"
     inkscape:current-layer="text4143"
     showgrid="false"
     units="ft"
     inkscape:window-width="1920"
     inkscape:window-height="1017"
     inkscape:window-x="-8"
     inkscape:window-y="-8"
     inkscape:window-maximized="1" />
  <metadata
     id="metadata4141">
    <rdf:RDF>
      <cc:Work
         rdf:about="">
        <dc:format>image/svg+xml</dc:format>
        <dc:type
           rdf:resource="http://purl.org/dc/dcmitype/StillImage" />
        <dc:title />
      </cc:Work>
    </rdf:RDF>
  </metadata>
  <g
     inkscape:label="Layer 1"
     inkscape:groupmode="layer"
     id="layer1"
     transform="translate(0,1107.6378)">
    <g
       aria-label=" "
       transform="scale(0.8816365,1.1342543)"
       style="font-style:normal;font-weight:normal;line-height:0%;font-family:sans-serif;letter-spacing:0px;word-spacing:0px;fill:#000000;fill-opacity:1;stroke:none;stroke-width:1px;stroke-linecap:butt;stroke-linejoin:miter;stroke-opacity:1"
       id="text4684" />
    <g
       aria-label="BYTEME! 7.0"
       transform="scale(0.9123052,1.0961244)"
       style="font-style:normal;font-variant:normal;font-weight:100;font-stretch:normal;line-height:0%;font-family:Computerfont;-inkscape-font-specification:'Computerfont, Thin';text-align:start;letter-spacing:0px;word-spacing:0px;writing-mode:lr-tb;text-anchor:start;fill:none;fill-opacity:1;stroke:#000000;stroke-width:1;stroke-linecap:butt;stroke-linejoin:miter;stroke-miterlimit:4;stroke-dasharray:none;stroke-opacity:1"
       id="text4143">
      <path
         style="font-size:1509.546875px;line-height:1.25"
         d="m 896.55712,105.20164 q 0,81.81627 -30.9575,144.46836 -30.95751,62.65209 -83.29043,103.19168 -61.91501,48.64751 -136.36044,69.28584 -73.70834,20.63834 -187.95627,20.63834 H 68.812424 V -654.73138 H 393.86622 q 120.1446,0 179.84836,8.845 59.70375,8.84501 114.24793,36.85418 60.44084,31.69458 87.71293,81.81626 27.27209,49.38459 27.27209,118.67043 0,78.13084 -39.80251,133.4121 -39.80251,54.54418 -106.14002,87.71293 v 5.89667 q 111.2996,22.84959 175.42586,98.032096 64.12626,74.4454265 64.12626,188.693354 z"
         id="path3743" />
      <path
         style="font-size:1509.546875px;line-height:1.25"
         d="m 651.10834,-389.38134 q 0,-39.80251 -13.2675,-67.07459 -13.26751,-27.27209 -42.75084,-44.22501 -34.64293,-19.90125 -84.02752,-24.32375 -49.38459,-5.15959 -122.35585,-5.15959 H 214.75494 V -213.2184 H 403.4483 q 68.54876,0 109.08835,-6.63375 40.53959,-7.37083 75.18251,-29.48334 34.64292,-22.1125 48.64751,-56.75542 14.74167,-35.38001 14.74167,-83.29043 z"
         id="path3741" />
      <path
         style="font-size:1509.546875px;line-height:1.25"
         d="m 744.71793,111.09831 q 0,-66.337507 -19.90125,-105.4029288 -19.90125,-39.0654222 -72.23418,-66.3375092 -35.38,-18.427086 -86.23876,-23.58667 -50.12167,-5.896667 -122.35585,-5.896667 H 214.75494 V 318.21876 H 407.8708 q 95.82085,0 156.99878,-9.58209 61.17792,-10.31917 100.24334,-36.85417 41.27668,-28.74625 60.44084,-65.60042 19.16417,-36.85418 19.16417,-95.08377 z"
         id="path3718" />
      <path
         style="font-size:1509.546875px;line-height:1.25"
         d="M 1880.5635,-654.73138 1494.3318,-38.529625 V 442.78586 H 1348.3892 V -23.050873 L 960.68335,-654.73138 h 161.42125 l 299.993,490.89757 302.9413,-490.89757 z"
         id="path3720" />
      <path
         style="font-size:1509.546875px;line-height:1.25"
         d="m 2815.1852,-525.00469 h -392.1283 v 967.79055 h -145.9426 v -967.79055 h -392.1284 v -129.72669 h 930.1993 z"
         id="path3722" />
      <path
         style="font-size:1509.546875px;line-height:1.25"
         d="M 3687.1549,442.78586 H 2964.0761 V -654.73138 h 723.0788 v 129.72669 h -577.1363 v 300.73004 h 577.1363 V -94.547966 H 3110.0186 V 313.05917 h 577.1363 z"
         id="path3724" />
      <path
         style="font-size:1509.546875px;line-height:1.25"
         d="m 4896.709,442.78586 h -145.9425 v -945.67805 l -305.1526,643.47384 h -86.9758 L 4055.6968,-502.89219 V 442.78586 H 3919.3363 V -654.73138 h 199.0126 l 292.6221,611.042171 283.04,-611.042171 h 202.698 z"
         id="path3726" />
      <path
         style="font-size:1509.546875px;line-height:1.25"
         d="M 5916.0954,442.78586 H 5193.0165 V -654.73138 h 723.0789 v 129.72669 H 5338.959 v 300.73004 h 577.1364 V -94.547966 H 5338.959 V 313.05917 h 577.1364 z"
         id="path3728" />
      <path
         style="font-size:1509.546875px;line-height:1.25"
         d="m 6380.4576,-654.73138 -19.1642,795.31303 h -125.3042 l -20.6383,-795.31303 z"
         id="path3757" />
      <path
         style="font-size:1509.546875px;line-height:1.25"
         d="m 6373.0867,442.78586 h -150.365 V 287.26125 h 150.365 z"
         id="path3730" />
      <path
         style="font-size:1509.546875px;line-height:1.25"
         d="m 7991.7221,-490.36177 -496.7942,933.14763 h -157.7358 l 528.4888,-968.52764 h -625.0468 v -128.9896 h 751.088 z"
         id="path3732" />
      <path
         style="font-size:1509.546875px;line-height:1.25"
         d="m 8450.9251,442.78586 h -176.163 V 232.71708 h 176.163 z"
         id="path3734" />
      <path
         style="font-size:1509.546875px;line-height:1.25"
         d="m 9496.8465,-106.3413 q 0,295.57046 -92.8725,434.14214 -92.1354,137.8346 -286.7254,137.8346 -197.5384,0 -288.9368,-140.04585 -90.6612,-140.04585 -90.6612,-430.45672 0,-292.62213 92.1354,-431.9309 92.1354,-140.04585 287.4626,-140.04585 197.5383,0 288.1996,142.2571 91.3983,141.52002 91.3983,428.24548 z"
         id="path3765" />
      <path
         style="font-size:1509.546875px;line-height:1.25"
         d="m 9302.9936,228.29458 q 25.7979,-59.70376 34.6429,-140.045854 9.5821,-81.079178 9.5821,-194.590026 0,-112.03668 -9.5821,-194.59003 -8.845,-82.55334 -35.38,-140.04585 -25.7979,-56.75542 -70.76,-85.50168 -44.225,-28.74625 -114.2479,-28.74625 -69.2859,0 -114.9851,28.74625 -44.9621,28.74626 -71.4971,86.97585 -25.0608,54.54417 -34.6429,142.2571 -8.845,87.71293 -8.845,192.37878 0,114.985012 8.1079,192.378772 8.108,77.393758 34.643,138.571688 24.3237,57.49251 68.5487,87.71293 44.9621,30.22042 118.6705,30.22042 69.2858,0 114.985,-28.74626 45.6991,-28.74625 70.76,-86.97584 z"
         id="path3736" />
    </g>
  </g>
</svg>
